<?xml version="1.0" encoding="UTF-8"?>
<svg width="62px" height="42px" viewBox="0 0 62 42" version="1.1" xmlns="http://www.w3.org/2000/svg" xmlns:xlink="http://www.w3.org/1999/xlink">
    <!-- Generator: Sketch 44.1 (41455) - http://www.bohemiancoding.com/sketch -->
    <title>Group</title>
    <desc>Created with Sketch.</desc>
    <defs></defs>
    <g id="Page-1" stroke="none" stroke-width="1" fill="none" fill-rule="evenodd" stroke-linecap="round" stroke-linejoin="round">
        <g id="Group" transform="translate(2.000000, 2.000000)" stroke="#19B5FE" stroke-width="3">
            <path d="M0,16 L50,16 L50,16 C54.418278,16 58,12.418278 58,8 L58,7.41442339 L58,7.41442339 C58,3.31955042 54.6804496,1.35962459e-16 50.5855766,8.8817842e-16 L50.5855766,8.27076857e-16 L50.5855766,8.8817842e-16 C46.4907036,1.64039438e-15 43.1711532,3.31955042 43.1711532,7.41442339 L43.1711532,8.23314085" id="Line"></path>
            <path d="M6,10 L27.3417969,10" id="Line-Copy-2"></path>
            <path d="M8,38 L37,38 L37,38 C41.418278,38 45,34.418278 45,30 L45,29.4144234 L45,29.4144234 C45,25.3195504 41.6804496,22 37.5855766,22 L37.5855766,22 L37.5855766,22 C33.4907036,22 30.1711532,25.3195504 30.1711532,29.4144234 L30.1711532,30.2331408" id="Line-Copy" transform="translate(26.500000, 30.000000) scale(1, -1) translate(-26.500000, -30.000000) "></path>
        </g>
    </g>
</svg>